<svg width="31" height="31" viewBox="0 0 563 563" fill="none" xmlns="http://www.w3.org/2000/svg">
<rect width="563" height="563" fill="#0A0F2C"/>
<path d="M148 78C150.761 78 153 80.2386 153 83V421H189.477L248.617 480.591C249.87 481.853 248.975 484 247.197 484H73C70.2386 484 68 481.761 68 479V84C68 80.6863 70.6863 78 74 78H148Z" fill="url(#paint0_linear_28_46)"/>
<path d="M68.4335 84.511C68.1528 84.1574 67.9901 83.7173 68.0289 83.2674C68.231 80.9248 69.4727 79.8569 71.0654 78.8623C71.994 78.2824 73.0787 78 74.1735 78H164.027C165.541 78 166.973 78.6859 167.922 79.8653L488.201 477.865C490.833 481.137 488.505 486 484.305 486H387.123L68.4335 84.511Z" fill="#5B0E8C"/>
<path d="M484 78C486.761 78.0001 489 80.2387 489 83V246.649C489 248.499 486.704 249.357 485.49 247.961L426 179.5V140.773H387.611L328.252 81.4141C326.992 80.1542 327.884 78.0001 329.666 78H484Z" fill="#5B0E8C"/>
<defs>
<linearGradient id="paint0_linear_28_46" x1="106.263" y1="78" x2="110.426" y2="484.003" gradientUnits="userSpaceOnUse">
<stop offset="0.159034" stop-color="#420767"/>
<stop offset="1" stop-color="#6C2DC7"/>
</linearGradient>
</defs>
</svg>
